<svg width="18" height="18" viewBox="0 0 18 18" fill="none" xmlns="http://www.w3.org/2000/svg">
<path d="M2.75 0.5C1.24011 0.5 0 1.74011 0 3.25V15.25C0 16.7599 1.24011 18 2.75 18H15.25C16.7599 18 18 16.7599 18 15.25V3.25C18 1.74011 16.7599 0.5 15.25 0.5H2.75ZM2.75 2H9H15.25C15.9491 2 16.5 2.55089 16.5 3.25V15.25C16.5 15.9491 15.9491 16.5 15.25 16.5H2.75C2.05089 16.5 1.5 15.9491 1.5 15.25V3.25C1.5 2.55089 2.05089 2 2.75 2Z" fill="black"/>
<path d="M11.3333 13.5652H8.84444C9.02222 13.2065 9.11111 12.8 9.11111 12.3696V11.7717H10.2222C10.6 11.7717 10.8889 11.4609 10.8889 11.0543C10.8889 10.6478 10.6 10.337 10.2222 10.337H9.11111V5.43478H10.1111C10.4222 5.43478 10.6667 5.69783 10.6667 6.03261C10.6667 6.43913 10.9556 6.75 11.3333 6.75C11.7111 6.75 12 6.43913 12 6.03261C12 4.9087 11.1556 4 10.1111 4H8.44444C8.06667 4 7.77778 4.31087 7.77778 4.71739V10.337H6.66667C6.28889 10.337 6 10.6478 6 11.0543C6 11.4609 6.28889 11.7717 6.66667 11.7717H7.77778V12.3696C7.77778 13.0391 7.28889 13.5652 6.66667 13.5652C6.28889 13.5652 6 13.8761 6 14.2826C6 14.6891 6.28889 15 6.66667 15H11.3333C11.7111 15 12 14.6891 12 14.2826C12 13.8761 11.6889 13.5652 11.3333 13.5652Z" fill="black"/>
</svg>
