<svg width="59" height="59" viewBox="0 0 59 59" fill="none" xmlns="http://www.w3.org/2000/svg">
<path fill-rule="evenodd" clip-rule="evenodd" d="M13.3048 0.625C11.1568 0.625 9.13553 1.57168 7.75916 3.22237L2.2981 9.7769C1.21849 11.0715 0.625 12.7123 0.625 14.3983V49.5521C0.625 54.4175 4.58408 58.375 9.44792 58.375H49C57 58.375 58.3719 53.5625 58.3719 49.5521V16.6667C58.3719 14.9807 57.7784 11.0715 56.6988 9.7769L51.2377 3.22237C49.8613 1.57168 47.8432 0.625 45.6952 0.625H13.3048ZM5.4375 49.5521C5.4375 51.7626 7.23577 53.5625 9.44792 53.5625H49C52 53.5625 53.5 51.5 53.5594 49.5521C53.6188 47.6042 53.5594 31.665 53.5594 31.665V16.6667H5.4375V49.5521ZM45.6921 5.4375H13.3048C12.5894 5.4375 11.9182 5.75202 11.4594 6.30225L6.83175 11.8542H52.1651L47.5406 6.30225C47.0818 5.75202 46.4075 5.4375 45.6921 5.4375Z" fill="black"/>
<path fill-rule="evenodd" clip-rule="evenodd" d="M21.3499 23.2566C21.6458 23.1377 21.9624 23.0788 22.2813 23.0833H36.7188C37.0376 23.0788 37.3542 23.1377 37.6501 23.2566C37.946 23.3755 38.2153 23.5521 38.4424 23.7759C38.6694 23.9998 38.8497 24.2666 38.9728 24.5608C39.0959 24.855 39.1593 25.1707 39.1593 25.4896C39.1593 25.8085 39.0959 26.1242 38.9728 26.4184C38.8497 26.7125 38.6694 26.9793 38.4424 27.2032C38.2153 27.4271 37.946 27.6036 37.6501 27.7225C37.3542 27.8414 37.0376 27.9003 36.7188 27.8958H22.2813C21.9624 27.9003 21.6458 27.8414 21.3499 27.7225C21.054 27.6036 20.7847 27.4271 20.5576 27.2032C20.3306 26.9793 20.1503 26.7125 20.0272 26.4184C19.9041 26.1242 19.8407 25.8085 19.8407 25.4896C19.8407 25.1707 19.9041 24.855 20.0272 24.5608C20.1503 24.2666 20.3306 23.9998 20.5576 23.7759C20.7847 23.5521 21.054 23.3755 21.3499 23.2566Z" fill="black"/>
</svg>
