<svg width="16" height="20" viewBox="0 0 16 20" fill="none" xmlns="http://www.w3.org/2000/svg">
<path d="M7.99997 0.499756C6.07586 0.499756 4.49997 2.07564 4.49997 3.99976C4.49997 5.92387 6.07586 7.49976 7.99997 7.49976C9.92409 7.49976 11.5 5.92387 11.5 3.99976C11.5 2.07564 9.92409 0.499756 7.99997 0.499756ZM7.99997 1.99976C9.11343 1.99976 9.99997 2.8863 9.99997 3.99976C9.99997 5.11321 9.11343 5.99976 7.99997 5.99976C6.88652 5.99976 5.99997 5.11321 5.99997 3.99976C5.99997 2.8863 6.88652 1.99976 7.99997 1.99976ZM5.60349 8.49976C4.17449 8.49976 2.88947 9.2945 2.24997 10.573L0.262666 14.5466C-0.00983395 15.0911 -0.0533808 15.7089 0.139619 16.2869C0.332119 16.8644 0.737197 17.3327 1.2822 17.6052L1.93259 17.9304C1.94309 17.4029 2.07378 16.9013 2.29978 16.4363L1.9531 16.2634C1.7666 16.1704 1.62847 16.0107 1.56247 15.8132C1.49647 15.6157 1.51194 15.4035 1.60544 15.2175L3.59177 11.2439C3.97527 10.4759 4.74599 9.99976 5.60349 9.99976H10.3965C11.254 9.99976 12.0247 10.4764 12.4082 11.2439L14.3945 15.2175C14.488 15.404 14.5035 15.6148 14.4375 15.8123C14.3715 16.0098 14.2333 16.1695 14.0468 16.2625L13.7002 16.4353C13.9262 16.9003 14.0569 17.4019 14.0674 17.9294L14.7177 17.6042C15.2627 17.3318 15.6678 16.8634 15.8603 16.2859C16.0528 15.7084 16.0098 15.0911 15.7373 14.5466L13.75 10.573C13.1105 9.2945 11.8255 8.49976 10.3965 8.49976H5.60349ZM7.99997 14.4998C5.15597 14.4998 2.92868 16.0373 2.92868 17.9998C2.92868 18.5403 3.1027 19.0468 3.4072 19.4998H5.6904C4.8999 19.1058 4.42868 18.5358 4.42868 17.9998C4.42868 17.0538 5.89547 15.9998 7.99997 15.9998C10.1045 15.9998 11.5713 17.0538 11.5713 17.9998C11.5713 18.5358 11.1 19.1058 10.3095 19.4998H12.5927C12.8972 19.0468 13.0713 18.5403 13.0713 17.9998C13.0713 16.0373 10.844 14.4998 7.99997 14.4998Z" fill="black"/>
</svg>
