<svg width="22" height="16" viewBox="0 0 22 16" fill="none" xmlns="http://www.w3.org/2000/svg">
<path d="M1.74994 0.500075C1.65056 0.498669 1.55188 0.51703 1.45966 0.554091C1.36743 0.591151 1.28349 0.646172 1.21271 0.715955C1.14194 0.785738 1.08573 0.868893 1.04737 0.960586C1.00901 1.05228 0.989258 1.15068 0.989258 1.25007C0.989258 1.34947 1.00901 1.44787 1.04737 1.53956C1.08573 1.63126 1.14194 1.71441 1.21271 1.78419C1.28349 1.85398 1.36743 1.909 1.45966 1.94606C1.55188 1.98312 1.65056 2.00148 1.74994 2.00007H20.2499C20.3493 2.00148 20.448 1.98312 20.5402 1.94606C20.6324 1.909 20.7164 1.85398 20.7872 1.78419C20.8579 1.71441 20.9141 1.63126 20.9525 1.53956C20.9909 1.44787 21.0106 1.34947 21.0106 1.25007C21.0106 1.15068 20.9909 1.05228 20.9525 0.960586C20.9141 0.868893 20.8579 0.785738 20.7872 0.715955C20.7164 0.646172 20.6324 0.591151 20.5402 0.554091C20.448 0.51703 20.3493 0.498669 20.2499 0.500075H1.74994ZM1.74994 7.25007C1.65056 7.24867 1.55188 7.26703 1.45966 7.30409C1.36743 7.34115 1.28349 7.39617 1.21271 7.46595C1.14194 7.53574 1.08573 7.61889 1.04737 7.71058C1.00901 7.80228 0.989258 7.90068 0.989258 8.00007C0.989258 8.09947 1.00901 8.19787 1.04737 8.28956C1.08573 8.38126 1.14194 8.46441 1.21271 8.53419C1.28349 8.60398 1.36743 8.659 1.45966 8.69606C1.55188 8.73312 1.65056 8.75148 1.74994 8.75007H17.2499C17.3493 8.75148 17.448 8.73312 17.5402 8.69606C17.6324 8.659 17.7164 8.60398 17.7872 8.53419C17.8579 8.46441 17.9141 8.38126 17.9525 8.28956C17.9909 8.19787 18.0106 8.09947 18.0106 8.00007C18.0106 7.90068 17.9909 7.80228 17.9525 7.71058C17.9141 7.61889 17.8579 7.53574 17.7872 7.46595C17.7164 7.39617 17.6324 7.34115 17.5402 7.30409C17.448 7.26703 17.3493 7.24867 17.2499 7.25007H1.74994ZM1.74994 14.0001C1.65056 13.9987 1.55188 14.017 1.45966 14.0541C1.36743 14.0912 1.28349 14.1462 1.21271 14.216C1.14194 14.2857 1.08573 14.3689 1.04737 14.4606C1.00901 14.5523 0.989258 14.6507 0.989258 14.7501C0.989258 14.8495 1.00901 14.9479 1.04737 15.0396C1.08573 15.1313 1.14194 15.2144 1.21271 15.2842C1.28349 15.354 1.36743 15.409 1.45966 15.4461C1.55188 15.4831 1.65056 15.5015 1.74994 15.5001H14.2499C14.3493 15.5015 14.448 15.4831 14.5402 15.4461C14.6324 15.409 14.7164 15.354 14.7872 15.2842C14.8579 15.2144 14.9141 15.1313 14.9525 15.0396C14.9909 14.9479 15.0106 14.8495 15.0106 14.7501C15.0106 14.6507 14.9909 14.5523 14.9525 14.4606C14.9141 14.3689 14.8579 14.2857 14.7872 14.216C14.7164 14.1462 14.6324 14.0912 14.5402 14.0541C14.448 14.017 14.3493 13.9987 14.2499 14.0001H1.74994Z" fill="black"/>
</svg>
