<svg width="18" height="18" viewBox="0 0 18 18" fill="none" xmlns="http://www.w3.org/2000/svg">
<path d="M14.7408 13.2924L15.1714 13.6258L15.4669 13.1683C16.2426 11.9673 16.7 10.5383 16.7 9C16.7 4.74766 13.2523 1.3 9 1.3C4.74766 1.3 1.3 4.74766 1.3 9C1.3 10.5387 1.75681 11.9687 2.53317 13.1702L2.82912 13.6282L3.25982 13.2937L3.95119 12.7568C3.95139 12.7566 3.95159 12.7565 3.95179 12.7563C4.57249 12.2775 5.49021 11.9087 6.45242 11.6606C7.40875 11.4141 8.35619 11.3 9 11.3C9.6438 11.3 10.591 11.4141 11.5472 11.6606C12.5095 11.9088 13.4274 12.2776 14.0487 12.7566C14.0488 12.7567 14.0488 12.7568 14.0489 12.7569L14.7408 13.2924ZM14.3667 14.5163C14.3865 14.4971 14.4062 14.4775 14.4256 14.4578C14.4318 14.4516 14.4379 14.4454 14.444 14.4391L14.7637 14.1307L14.2939 13.7785C14.2388 13.7372 14.1792 13.6929 14.1147 13.6463L13.9533 13.4985C13.9469 13.5055 13.9406 13.5123 13.9344 13.5191C13.0767 12.9299 11.5345 12.1 9 12.1C6.06108 12.1 4.45649 13.2158 3.70609 13.7785L3.23633 14.1307L3.65893 14.5384C5.04256 15.8731 6.92319 16.7 9 16.7C11.0768 16.7 12.9574 15.8731 14.3411 14.5384L14.3653 14.515L14.3667 14.5163ZM0.5 9C0.5 4.30544 4.30544 0.5 9 0.5C13.6946 0.5 17.5 4.30544 17.5 9C17.5 13.6946 13.6946 17.5 9 17.5C4.30544 17.5 0.5 13.6946 0.5 9ZM6.575 6.3C6.575 4.96334 7.66334 3.875 9 3.875C10.3367 3.875 11.425 4.96334 11.425 6.3C11.425 7.63666 10.3367 8.725 9 8.725C7.66334 8.725 6.575 7.63666 6.575 6.3ZM10.625 6.3C10.625 5.40376 9.89624 4.675 9 4.675C8.10376 4.675 7.375 5.40376 7.375 6.3C7.375 7.19624 8.10376 7.925 9 7.925C9.89624 7.925 10.625 7.19624 10.625 6.3Z" stroke="black"/>
</svg>
