<svg width="18" height="17" viewBox="0 0 18 17" fill="none" xmlns="http://www.w3.org/2000/svg">
<path d="M5.17251 0C3.67743 0 2.36809 1.00187 2.01708 2.41529L1.6513 3.88571H0.75978C0.660514 3.88435 0.561959 3.90219 0.469842 3.93819C0.377725 3.97419 0.293884 4.02764 0.223191 4.09543C0.152497 4.16322 0.0963617 4.24399 0.0580464 4.33307C0.019731 4.42214 0 4.51773 0 4.61429C0 4.71084 0.019731 4.80643 0.0580464 4.8955C0.0963617 4.98458 0.152497 5.06536 0.223191 5.13314C0.293884 5.20093 0.377725 5.25438 0.469842 5.29038C0.561959 5.32639 0.660514 5.34422 0.75978 5.34286H1.28943L1.07484 6.20709C0.451178 6.5974 0.0106692 7.2463 0.0106692 8.01429V14.0857V14.3286V16.0286C0.0106692 16.5653 0.457639 17 1.00948 17H2.0083C2.56014 17 3.00711 16.5653 3.00711 16.0286V15.0571H14.9929V16.0286C14.9929 16.5653 15.4399 17 15.9917 17H16.9905C17.5424 17 17.9893 16.5653 17.9893 16.0286V14.3286V14.0857V8.01429C17.9893 7.2463 17.5488 6.5974 16.9252 6.20709L16.7106 5.34286H17.2402C17.3395 5.34422 17.438 5.32639 17.5302 5.29038C17.6223 5.25438 17.7061 5.20093 17.7768 5.13314C17.8475 5.06536 17.9036 4.98458 17.942 4.8955C17.9803 4.80643 18 4.71084 18 4.61429C18 4.51773 17.9803 4.42214 17.942 4.33307C17.9036 4.24399 17.8475 4.16322 17.7768 4.09543C17.7061 4.02764 17.6223 3.97419 17.5302 3.93819C17.438 3.90219 17.3395 3.88435 17.2402 3.88571H16.3487L15.9829 2.41529C15.6319 1.00187 14.3226 0 12.8275 0H5.17251ZM5.17251 1.45714H12.8275C13.6387 1.45714 14.3363 1.99129 14.5266 2.75776L15.2894 5.82857H2.71059L3.47336 2.75776C3.6637 1.99129 4.36133 1.45714 5.17251 1.45714ZM2.258 7.28571H15.742C16.1647 7.28571 16.4911 7.60313 16.4911 8.01429V13.6H1.50889V8.01429C1.50889 7.60313 1.83525 7.28571 2.258 7.28571ZM4.00593 8.74286C3.74103 8.74286 3.48697 8.8452 3.29966 9.02738C3.11234 9.20956 3.00711 9.45665 3.00711 9.71429C3.00711 9.97192 3.11234 10.219 3.29966 10.4012C3.48697 10.5834 3.74103 10.6857 4.00593 10.6857C4.27083 10.6857 4.52488 10.5834 4.7122 10.4012C4.89951 10.219 5.00474 9.97192 5.00474 9.71429C5.00474 9.45665 4.89951 9.20956 4.7122 9.02738C4.52488 8.8452 4.27083 8.74286 4.00593 8.74286ZM13.9941 8.74286C13.7292 8.74286 13.4751 8.8452 13.2878 9.02738C13.1005 9.20956 12.9953 9.45665 12.9953 9.71429C12.9953 9.97192 13.1005 10.219 13.2878 10.4012C13.4751 10.5834 13.7292 10.6857 13.9941 10.6857C14.259 10.6857 14.513 10.5834 14.7003 10.4012C14.8877 10.219 14.9929 9.97192 14.9929 9.71429C14.9929 9.45665 14.8877 9.20956 14.7003 9.02738C14.513 8.8452 14.259 8.74286 13.9941 8.74286ZM7.25208 10.6857C7.15281 10.6843 7.05425 10.7022 6.96214 10.7382C6.87002 10.7742 6.78618 10.8276 6.71549 10.8954C6.64479 10.9632 6.58866 11.044 6.55034 11.1331C6.51203 11.2221 6.49229 11.3177 6.49229 11.4143C6.49229 11.5108 6.51203 11.6064 6.55034 11.6955C6.58866 11.7846 6.64479 11.8654 6.71549 11.9331C6.78618 12.0009 6.87002 12.0544 6.96214 12.0904C7.05425 12.1264 7.15281 12.1442 7.25208 12.1429H10.7479C10.8472 12.1442 10.9457 12.1264 11.0379 12.0904C11.13 12.0544 11.2138 12.0009 11.2845 11.9331C11.3552 11.8654 11.4113 11.7846 11.4497 11.6955C11.488 11.6064 11.5077 11.5108 11.5077 11.4143C11.5077 11.3177 11.488 11.2221 11.4497 11.1331C11.4113 11.044 11.3552 10.9632 11.2845 10.8954C11.2138 10.8276 11.13 10.7742 11.0379 10.7382C10.9457 10.7022 10.8472 10.6843 10.7479 10.6857H7.25208Z" fill="black"/>
</svg>
